<svg width="222" height="222" viewBox="0 0 222 222" fill="none" xmlns="http://www.w3.org/2000/svg">
<path fill-rule="evenodd" clip-rule="evenodd" d="M15 15H206.706V53.9818H221.706V15V0H206.706H15H0V15V207V222H15H206.706H221.706V207V169.943H206.706V207H15V15Z" fill="#333333"/>
<path d="M55.9686 82.1628V70.0184H120.882V82.1628H95.735V149.992H81.1156V82.1628H55.9686Z" fill="#333333"/>
<path d="M207.381 70.0184H222V126.25C221.974 131.404 220.861 135.843 218.663 139.565C216.465 143.262 213.393 146.113 209.446 148.117C205.527 150.096 200.958 151.085 195.741 151.085C190.974 151.085 186.683 150.252 182.869 148.586C179.082 146.894 176.076 144.394 173.851 141.088C171.627 137.782 170.514 133.669 170.514 128.749H185.173C185.2 130.909 185.677 132.771 186.604 134.333C187.557 135.895 188.868 137.092 190.537 137.925C192.205 138.758 194.125 139.175 196.297 139.175C198.654 139.175 200.654 138.693 202.296 137.73C203.938 136.741 205.182 135.283 206.03 133.356C206.904 131.43 207.354 129.061 207.381 126.25V70.0184Z" fill="#333333"/>
<line x1="145.973" y1="70.0184" x2="145.973" y2="150.991" stroke="#333333" stroke-width="15"/>
</svg>
